<svg id="Multicolor" xmlns="http://www.w3.org/2000/svg" viewBox="0 0 100 112"><defs><style>.cls-1,.cls-9{fill:#fff;}.cls-2{fill:#e8f4fa;}.cls-17,.cls-3,.cls-4{fill:none;}.cls-11,.cls-14,.cls-17,.cls-18,.cls-20,.cls-3,.cls-4,.cls-9{stroke:#191816;}.cls-18,.cls-20,.cls-3,.cls-9{stroke-linecap:round;}.cls-11,.cls-14,.cls-18,.cls-20,.cls-3,.cls-4,.cls-9{stroke-linejoin:round;}.cls-5{fill:#724f3d;}.cls-6{fill:#a86c4d;}.cls-7{fill:#bf8df2;}.cls-8{fill:#dabff5;}.cls-10{fill:#191816;opacity:0.15;}.cls-11{fill:#8ca4b8;}.cls-12{fill:#adc4d9;}.cls-13{fill:#c0dceb;}.cls-14{fill:#f0f0f0;}.cls-15,.cls-18{fill:#d18660;}.cls-16{fill:#e09f7e;}.cls-17{stroke-miterlimit:10;}.cls-19{fill:#bd704a;}.cls-20{fill:#fab796;}</style></defs><title>61- programmer-female-african-american</title><g id="Background"><path class="cls-1" d="M50.34,96A39.94,39.94,0,0,0,85,76H15.73A39.94,39.94,0,0,0,50.34,96Z"/><path class="cls-1" d="M13.91,72.5c.54,1.2,1.17,2.36,1.82,3.5H85c.66-1.14,1.28-2.3,1.83-3.5Z"/><path class="cls-2" d="M90.34,56A40,40,0,1,0,13.91,72.5H86.78A39.85,39.85,0,0,0,90.34,56Z"/><line class="cls-3" x1="11.34" y1="72.5" x2="89.34" y2="72.5"/><line class="cls-3" x1="6.84" y1="72.5" x2="9.34" y2="72.5"/><line class="cls-3" x1="91.34" y1="72.5" x2="93.84" y2="72.5"/><line class="cls-4" x1="11.34" y1="72.5" x2="89.32" y2="72.5"/><line class="cls-3" x1="11.84" y1="72.5" x2="88.84" y2="72.5"/></g><g id="Scene"><path class="cls-5" d="M63.77,44.65A71,71,0,0,1,62.38,30.7a11.76,11.76,0,0,0-12-11.78,11.75,11.75,0,0,0-12,11.78,71.74,71.74,0,0,1-1.39,14A3.6,3.6,0,0,0,40.44,49h19.8A3.61,3.61,0,0,0,63.77,44.65Z"/><path class="cls-6" d="M38.64,30.5a11.75,11.75,0,0,1,11.7-9,11.75,11.75,0,0,1,11.7,9h.34a11.76,11.76,0,0,0-12-11.58,11.76,11.76,0,0,0-12,11.58Z"/><path class="cls-3" d="M63.77,44.65A71,71,0,0,1,62.38,30.7a11.76,11.76,0,0,0-12-11.78,11.75,11.75,0,0,0-12,11.78,71.74,71.74,0,0,1-1.39,14A3.6,3.6,0,0,0,40.44,49h19.8A3.61,3.61,0,0,0,63.77,44.65Z"/><path class="cls-7" d="M55.53,50.43a1,1,0,0,1-.45-1.55l.53-.69c.74-1,.6-2.19-.9-2.19H46c-1.5,0-1.65,1.17-.9,2.19l.52.69a1,1,0,0,1-.45,1.55A15,15,0,0,0,35.33,64.5V69a2.76,2.76,0,0,1-2.78,2.5,2.54,2.54,0,0,1-1.95-.92l-2.41-3,.39,2.63a.94.94,0,0,1-.79,1c-.41.06-3.27.51-3.65.47l3,3a8,8,0,0,0,5.33,2.35c4.4.19,8.07-3.3,8.35-8.23V72.5h24.5v-8A15,15,0,0,0,55.53,50.43Z"/><path class="cls-8" d="M50.33,53.5a15,15,0,0,1,15,15v-4a15,15,0,0,0-9.8-14.07,1,1,0,0,1-.45-1.55l.53-.69c.74-1,.6-2.19-.9-2.19H46c-1.5,0-1.65,1.17-.9,2.19l.52.69a1,1,0,0,1-.45,1.55A15,15,0,0,0,35.33,64.5v4A15,15,0,0,1,50.33,53.5Z"/><path class="cls-3" d="M55.53,50.43a1,1,0,0,1-.45-1.55l.53-.69c.74-1,.6-2.19-.9-2.19H46c-1.5,0-1.65,1.17-.9,2.19l.52.69a1,1,0,0,1-.45,1.55A15,15,0,0,0,35.33,64.5V69a2.76,2.76,0,0,1-2.78,2.5,2.54,2.54,0,0,1-1.95-.92l-2.41-3,.39,2.63a.94.94,0,0,1-.79,1c-.41.06-3.27.51-3.65.47l3,3a8,8,0,0,0,5.33,2.35c4.4.19,8.07-3.3,8.35-8.23V72.5h24.5v-8A15,15,0,0,0,55.53,50.43Z"/><path class="cls-3" d="M40.83,72.5V68c0-3-2.31-4-.89-7.52.3-.73.64-1.65.89-2.48"/><path class="cls-3" d="M59.83,72.5V68c0-3,2.3-4,.88-7.52-.3-.73-.63-1.65-.88-2.48"/><rect class="cls-2" x="24.39" y="59.26" width="10.84" height="15.08" rx="1.4" ry="1.4" transform="translate(-11.75 6.6) rotate(-10.57)"/><path class="cls-1" d="M23.47,62.38a1.47,1.47,0,0,1,.56-.23l9.49-1.77a1.35,1.35,0,0,1,.6,0L34,59.77a1.4,1.4,0,0,0-1.63-1.12l-7.9,1.47a1.41,1.41,0,0,0-1.12,1.64Z"/><rect class="cls-3" x="24.39" y="59.26" width="10.84" height="15.08" rx="1.4" ry="1.4" transform="translate(-11.75 6.6) rotate(-10.57)"/><path class="cls-9" d="M30.51,64.55a1.2,1.2,0,1,1-1.4-1A1.21,1.21,0,0,1,30.51,64.55Z"/><line class="cls-3" x1="25.28" y1="61.94" x2="26.81" y2="61.63"/><path class="cls-3" d="M46.16,81.5H43.69A1.48,1.48,0,0,0,42.17,83h0a1.52,1.52,0,0,0,1.52,1.52h2.73a1.75,1.75,0,0,1,1.75,1.75h0A1.75,1.75,0,0,1,46.42,88H32.17a2.5,2.5,0,0,1-2.5-2.5h0a2.5,2.5,0,0,1,2.5-2.5c4.91,0,3.52-3.84,1.36-9.23"/><path class="cls-10" d="M77.18,85c0,.83-7.29,1.5-17.5,1.5s-15.5-.67-15.5-1.5,5.28-1.5,15.5-1.5S77.18,84.17,77.18,85Z"/><path class="cls-11" d="M46.16,81.5h29a0,0,0,0,1,0,0V82a2,2,0,0,1-2,2h-25a2,2,0,0,1-2-2v-.5A0,0,0,0,1,46.16,81.5Z"/><path class="cls-12" d="M75.18,81.5h-29L44.69,68.24a2,2,0,0,1,.49-1.57,2,2,0,0,1,1.5-.67h28a2,2,0,0,1,2,2.24Z"/><path class="cls-13" d="M44.91,70.19a1.72,1.72,0,0,1,.27-.52,2,2,0,0,1,1.5-.67h28a2,2,0,0,1,1.49.67,2.12,2.12,0,0,1,.28.51l.21-1.94a2,2,0,0,0-2-2.24h-28a2,2,0,0,0-1.5.67,2,2,0,0,0-.49,1.57Z"/><path class="cls-4" d="M75.18,81.5h-29L44.69,68.24a2,2,0,0,1,.49-1.57,2,2,0,0,1,1.5-.67h28a2,2,0,0,1,2,2.24Z"/><path class="cls-14" d="M62.28,73.86A1.55,1.55,0,0,1,63,72.57a1.58,1.58,0,0,0-1.24-.68c-.53,0-1,.31-1.31.31s-.68-.3-1.12-.29a1.66,1.66,0,0,0-1.41.85,3.56,3.56,0,0,0,.43,3.43c.29.41.63.88,1.08.86s.59-.28,1.11-.28.67.28,1.13.27.75-.42,1-.84a4.07,4.07,0,0,0,.47-1A1.52,1.52,0,0,1,62.28,73.86Z"/><line class="cls-3" x1="61.12" y1="70.12" x2="61.74" y2="69.5"/><path class="cls-15" d="M24.59,64.85h1.15a3,3,0,0,1,3,3v1.5a3,3,0,0,1-3,3H24.59a1.85,1.85,0,0,1-1.85-1.85v-3.8a1.85,1.85,0,0,1,1.85-1.85Z" transform="translate(-9.62 4.43) rotate(-8.29)"/><path class="cls-16" d="M22.59,67.83a1.84,1.84,0,0,1,1.39-1l1.27-.18a3,3,0,0,1,3.4,2.53l.12.84a2.89,2.89,0,0,0,0-1.1l-.21-1.48a3,3,0,0,0-3.4-2.54l-1.14.17a1.87,1.87,0,0,0-1.57,2.1Z"/><path class="cls-17" d="M24.59,64.85h1.15a3,3,0,0,1,3,3v1.5a3,3,0,0,1-3,3H24.59a1.85,1.85,0,0,1-1.85-1.85v-3.8a1.85,1.85,0,0,1,1.85-1.85Z" transform="translate(-9.62 4.43) rotate(-8.29)"/><path class="cls-18" d="M60.34,34.5c0-.37,0-1.74-.06-2.11-2.65-.64-5.35-3.16-5.35-5.89a13.57,13.57,0,0,1-11.14,5.8,16.62,16.62,0,0,1-3.32-.43c-.08.53-.13,2.08-.13,2.63a2,2,0,0,0,0,4h.12a10,10,0,0,0,19.76,0h.12a2,2,0,0,0,0-4Z"/><circle class="cls-19" cx="44.59" cy="38.75" r="1.25"/><circle class="cls-19" cx="56.09" cy="38.75" r="1.25"/><path class="cls-3" d="M53.34,41.29a4.32,4.32,0,0,1-6,0"/><path class="cls-20" d="M50.34,33.5h-10c.5,1.34,1.37,5,5,5C48.56,38.5,49.57,35.25,50.34,33.5Z"/><path class="cls-20" d="M50.34,33.5h10c-.5,1.34-1.37,5-5,5C52.12,38.5,51.12,35.25,50.34,33.5Z"/><path class="cls-3" d="M47.84,35.5a1.63,1.63,0,0,0-3,0"/><path class="cls-3" d="M55.84,35.5a1.63,1.63,0,0,0-3,0"/></g></svg>