<svg id="Multicolor" xmlns="http://www.w3.org/2000/svg" viewBox="0 0 100 112"><defs><style>.cls-1{fill:#fff;}.cls-16,.cls-2{fill:#e8f4fa;}.cls-13,.cls-3{fill:none;}.cls-10,.cls-13,.cls-14,.cls-15,.cls-16,.cls-19,.cls-20,.cls-3,.cls-7{stroke:#191816;stroke-linejoin:round;}.cls-15,.cls-16,.cls-19,.cls-20,.cls-3{stroke-linecap:round;}.cls-4,.cls-7{fill:#e0e0e0;}.cls-14,.cls-5{fill:#f0f0f0;}.cls-6{fill:#191816;opacity:0.15;}.cls-15,.cls-8{fill:#ffcebf;}.cls-9{fill:#ffb59e;}.cls-10{fill:#8ca4b8;}.cls-11{fill:#adc4d9;}.cls-12{fill:#c0dceb;}.cls-17{fill:#00b8f0;}.cls-18{fill:#4acfff;}.cls-19{fill:#bdbec0;}.cls-20,.cls-21{fill:#a86c4d;}.cls-22{fill:#de926a;}</style></defs><title>63- osx-programmer-male-caucasian</title><g id="Background"><g id="New_Symbol_39-3" data-name="New Symbol 39"><path class="cls-1" d="M50.34,96A40,40,0,0,0,85,76H15.73A40,40,0,0,0,50.34,96Z"/><path class="cls-1" d="M13.9,72.51c.55,1.2,1.17,2.36,1.83,3.5H85c.65-1.14,1.28-2.3,1.82-3.5Z"/><path class="cls-2" d="M90.34,56A40,40,0,1,0,13.9,72.51H86.77A39.73,39.73,0,0,0,90.34,56Z"/><line class="cls-3" x1="11.34" y1="72.51" x2="89.34" y2="72.51"/><line class="cls-3" x1="6.84" y1="72.51" x2="9.34" y2="72.51"/><line class="cls-3" x1="91.34" y1="72.51" x2="93.84" y2="72.51"/></g></g><g id="Scene"><path class="cls-4" d="M49.34,49.51A15.5,15.5,0,0,0,33.84,65v5.15a1.3,1.3,0,0,1-2,1.06l-2-1.2a3,3,0,1,0-3.1,5.16c2,1.22,3.34,2.23,5.73,2.23a7.3,7.3,0,0,0,6.81-4.9h25.5V65A15.5,15.5,0,0,0,49.34,49.51Z"/><path class="cls-5" d="M49.34,49.51A15.5,15.5,0,0,0,33.84,65v4a15.5,15.5,0,0,1,31,0V65A15.5,15.5,0,0,0,49.34,49.51Z"/><path class="cls-3" d="M49.34,49.51A15.5,15.5,0,0,0,33.84,65v5.15a1.3,1.3,0,0,1-2,1.06l-2-1.2a3,3,0,1,0-3.1,5.16c2,1.22,3.34,2.23,5.73,2.23a7.3,7.3,0,0,0,6.81-4.9h25.5V65A15.5,15.5,0,0,0,49.34,49.51Z"/><path class="cls-6" d="M35.34,78.51c0,.83-3.09,1.5-7.43,1.5s-6.57-.67-6.57-1.5S23.58,77,27.91,77,35.34,77.68,35.34,78.51Z"/><path class="cls-7" d="M50.59,47.51h-2.5a4.25,4.25,0,0,0,0,8.5h2.5a4.25,4.25,0,0,0,0-8.5Z"/><line class="cls-3" x1="39.34" y1="72.51" x2="39.34" y2="63.51"/><line class="cls-3" x1="59.34" y1="72.51" x2="59.34" y2="63.51"/><path class="cls-8" d="M45.84,46V51.6s0,2.38,3.5,2.41,3.5-2.41,3.5-2.41V46Z"/><path class="cls-9" d="M45.84,49.11c0,.14.07,2.37,3.5,2.4s3.5-2.26,3.5-2.4V46h-7Z"/><path class="cls-3" d="M45.84,46V51.6s0,2.38,3.5,2.41,3.5-2.41,3.5-2.41V46Z"/><path class="cls-6" d="M77.34,84.51c0,.83-7.28,1.5-17.5,1.5s-15.5-.67-15.5-1.5S49.62,83,59.84,83,77.34,83.68,77.34,84.51Z"/><path class="cls-10" d="M46.32,81h29a0,0,0,0,1,0,0v.5a2,2,0,0,1-2,2h-25a2,2,0,0,1-2-2V81A0,0,0,0,1,46.32,81Z"/><path class="cls-11" d="M75.34,81h-29L44.85,67.75a2,2,0,0,1,2-2.24h28a2,2,0,0,1,2,2.24Z"/><path class="cls-12" d="M45.07,69.69a1.92,1.92,0,0,1,.27-.51,2,2,0,0,1,1.5-.67h28a2,2,0,0,1,1.5.67,2.26,2.26,0,0,1,.27.51l.21-1.94a2,2,0,0,0-2-2.24h-28a2,2,0,0,0-2,2.24Z"/><path class="cls-13" d="M75.34,81h-29L44.85,67.75a2,2,0,0,1,2-2.24h28a2,2,0,0,1,2,2.24Z"/><path class="cls-14" d="M62.45,73.37a1.55,1.55,0,0,1,.73-1.3,1.6,1.6,0,0,0-1.24-.67c-.53-.05-1,.31-1.31.31s-.68-.3-1.12-.3a1.67,1.67,0,0,0-1.41.86,3.54,3.54,0,0,0,.44,3.43c.28.41.62.87,1.07.86s.59-.28,1.11-.28.67.28,1.13.27.75-.42,1-.84a3.64,3.64,0,0,0,.47-1A1.47,1.47,0,0,1,62.45,73.37Z"/><line class="cls-3" x1="61.28" y1="69.63" x2="61.91" y2="69.01"/><path class="cls-15" d="M28.48,69.51H27.2a2.89,2.89,0,0,0-2.86,2.92v2.78a1.2,1.2,0,0,0,.88,1.14,9.43,9.43,0,0,0,5.24,0,1.2,1.2,0,0,0,.88-1.14V72.43A2.89,2.89,0,0,0,28.48,69.51Z"/><path class="cls-1" d="M31.51,78.51H24.34a1,1,0,0,1-1-1.15l.25-1.65A4.37,4.37,0,0,1,27.92,72h0a4.36,4.36,0,0,1,4.32,3.7l.26,1.65A1,1,0,0,1,31.51,78.51Z"/><path class="cls-2" d="M27.92,74a4.37,4.37,0,0,0-4.32,3.7l-.06.38a1,1,0,0,0,.8.42h7.17a1,1,0,0,0,.79-.42l-.06-.38A4.36,4.36,0,0,0,27.92,74Z"/><path class="cls-3" d="M31.51,78.51H24.34a1,1,0,0,1-1-1.15l.25-1.65A4.37,4.37,0,0,1,27.92,72h0a4.36,4.36,0,0,1,4.32,3.7l.26,1.65A1,1,0,0,1,31.51,78.51Z"/><circle class="cls-3" cx="27.84" cy="74.44" r="0.5"/><path class="cls-16" d="M43.84,87h-7a1,1,0,0,1-1-1V85h9v1A1,1,0,0,1,43.84,87Z"/><path class="cls-17" d="M44.84,85h-9l1.77-5.32a1,1,0,0,1,1-.68h3.56a1,1,0,0,1,1,.68Z"/><path class="cls-18" d="M42.12,79H38.56a1,1,0,0,0-1,.68L35.84,85h.61l6.6-5.38A1,1,0,0,0,42.12,79Z"/><path class="cls-3" d="M44.84,85h-9l1.77-5.32a1,1,0,0,1,1-.68h3.56a1,1,0,0,1,1,.68Z"/><line class="cls-3" x1="39.84" y1="80.39" x2="40.84" y2="80.39"/><rect class="cls-19" x="40.84" y="85.01" width="2" height="2"/><path class="cls-15" d="M59.34,35.51V33a10,10,0,0,0-20,0v2.5a2,2,0,0,0,0,4h.12a10,10,0,0,0,19.76,0h.12a2,2,0,0,0,0-4Z"/><circle class="cls-9" cx="43.59" cy="39.27" r="1.25"/><circle class="cls-9" cx="55.09" cy="39.27" r="1.25"/><path class="cls-3" d="M46.84,36a1.63,1.63,0,0,0-3,0"/><path class="cls-3" d="M54.85,36a1.63,1.63,0,0,0-3,0"/><path class="cls-20" d="M57,40c-1,2.39-1.08,3-1.74,3.17l-.76.19a.89.89,0,0,1-1.07-.59c-.67-1.53-1.8-2.8-3.4-2.8h-1.4c-1.6,0-2.74,1.27-3.4,2.8a.9.9,0,0,1-1.07.59l-.76-.19c-.67-.17-.72-.78-1.75-3.17-.33-.79-1.31-.54-2.2-.54a9.88,9.88,0,1,0,19.76,0C58.33,39.5,57.35,39.25,57,40Z"/><path class="cls-21" d="M39,35.69a1,1,0,0,1-1.15-.49,12,12,0,0,1-1-5.31A9.93,9.93,0,0,1,46.77,20c2.7,0,8.12-.65,9.92,1.75,7.92,1.76,5.16,15.3,4.36,14.49a1.9,1.9,0,0,0-1.35-.59,2.09,2.09,0,0,0-1.36.4,15.2,15.2,0,0,1-2.54-9.73c0,2.71-5.93,5.06-10.94,5.06a11.64,11.64,0,0,1-3.6-.51A14.07,14.07,0,0,1,40.84,36,2.26,2.26,0,0,0,39,35.69Z"/><path class="cls-22" d="M46.77,22.73c2.7,0,8.12-.65,9.92,1.75,3.83.85,5.16,4.46,5.43,7.86.29-3.92-.52-9.53-5.43-10.63-1.8-2.4-7.22-1.75-9.92-1.75a9.93,9.93,0,0,0-9.93,9.93c0,.53,0,1.08.07,1.62A9.92,9.92,0,0,1,46.77,22.73Z"/><path class="cls-3" d="M47.35,42.51a4.21,4.21,0,0,0,4,0"/><path class="cls-3" d="M39,35.69a1,1,0,0,1-1.15-.49,12,12,0,0,1-1-5.31A9.93,9.93,0,0,1,46.77,20c2.7,0,8.12-.65,9.92,1.75,7.92,1.76,5.16,15.3,4.36,14.49a1.9,1.9,0,0,0-1.35-.59,2.09,2.09,0,0,0-1.36.4,15.2,15.2,0,0,1-2.54-9.73c0,2.71-5.93,5.06-10.94,5.06a11.64,11.64,0,0,1-3.6-.51A14.07,14.07,0,0,1,40.84,36,2.26,2.26,0,0,0,39,35.69Z"/></g></svg>